<svg width="211" height="39" viewBox="0 0 211 39" fill="none" xmlns="http://www.w3.org/2000/svg">
<g clip-path="url(#clip0_1_625)">
<path d="M0 20.5002H19.8077V39H0V20.5002ZM20.1573 0H40.6134V20.5002H20.1573V0Z" fill="#00ADE5"/>
<path d="M3.83949 3.5675H36.6912V36.0059H3.83949V3.5675Z" fill="#00ADE5"/>
<path d="M9.92926 12.3395V31.9478H16.3114V6.1156L9.92926 12.3395ZM30.9765 12.3395V31.9478H24.5943V6.1156L30.9765 12.3395ZM23.6472 17.4359V31.9478H17.2586V11.212L23.6472 17.4359Z" fill="white"/>
<path d="M47.4723 9.73403V23.2394H50.1294V14.8686L55.5136 23.2394L60.7706 14.9451V23.2394H63.6693V9.73403H60.7706L55.5708 17.9902L50.1294 9.73403H47.4723ZM78.3344 12.4542V9.73403H64.9089V23.2394H78.3344V20.5001H67.5724V17.6716H75.4929V15.0215H67.5724V12.4542H78.3344ZM93.1711 9.73403H79.574V12.4542H85.0153V23.2394H87.6725V12.4542H93.1711V9.73403ZM155.664 20.6339V9.73403H152.766V23.2394H163.642V20.6339H155.664ZM164.888 9.73403H167.666V23.2458H164.888V9.73403ZM182.267 9.73403H168.906V12.4542H174.283V23.2394H176.947V12.4542H182.267V9.73403ZM208.279 9.73403V18.8693L200.416 9.73403H197.46V23.2394H200.416V14.1424L208.279 23.2394H211V9.73403H208.279ZM118.999 9.73403H111.618C111.226 9.73486 110.838 9.81343 110.476 9.96522C110.114 10.117 109.786 10.339 109.51 10.6185C109.234 10.898 109.016 11.2294 108.868 11.5936C108.721 11.9579 108.646 12.3478 108.65 12.7409V20.2708C108.651 21.0593 108.965 21.815 109.521 22.3726C110.077 22.9301 110.832 23.2441 111.618 23.2458H118.999C119.785 23.2441 120.539 22.9301 121.096 22.3726C121.652 21.815 121.966 21.0593 121.967 20.2708V12.7409C121.97 12.348 121.895 11.9585 121.747 11.5946C121.599 11.2307 121.381 10.8997 121.105 10.6204C120.83 10.3411 120.501 10.119 120.14 9.96694C119.779 9.81484 119.391 9.7357 118.999 9.73403ZM119.323 19.8567C119.323 20.1253 119.216 20.383 119.027 20.5729C118.837 20.7629 118.58 20.8696 118.312 20.8696H112.063C111.795 20.8696 111.538 20.7629 111.349 20.5729C111.159 20.383 111.053 20.1253 111.053 19.8567V13.1996C111.053 12.9309 111.159 12.6733 111.349 12.4833C111.538 12.2934 111.795 12.1867 112.063 12.1867H118.312C118.58 12.1867 118.837 12.2934 119.027 12.4833C119.216 12.6733 119.323 12.9309 119.323 13.1996V19.8567ZM148.443 9.73403H141.063C140.671 9.73486 140.282 9.81343 139.92 9.96522C139.559 10.117 139.23 10.339 138.954 10.6185C138.678 10.898 138.46 11.2294 138.313 11.5936C138.165 11.9579 138.091 12.3478 138.094 12.7409V20.2708C138.096 21.0593 138.409 21.815 138.966 22.3726C139.522 22.9301 140.276 23.2441 141.063 23.2458H148.443C149.23 23.2441 149.984 22.9301 150.54 22.3726C151.097 21.815 151.41 21.0593 151.412 20.2708V12.7409C151.415 12.3478 151.341 11.9579 151.193 11.5936C151.046 11.2294 150.828 10.898 150.552 10.6185C150.276 10.339 149.947 10.117 149.586 9.96522C149.224 9.81343 148.835 9.73486 148.443 9.73403ZM148.748 19.8567C148.748 20.1253 148.642 20.383 148.452 20.5729C148.263 20.7629 148.006 20.8696 147.738 20.8696H141.489C141.222 20.8679 140.966 20.7605 140.778 20.5707C140.59 20.3809 140.484 20.1242 140.484 19.8567V13.1996C140.484 12.9309 140.591 12.6733 140.78 12.4833C140.97 12.2934 141.227 12.1867 141.495 12.1867H147.738C148.006 12.1867 148.263 12.2934 148.452 12.4833C148.642 12.6733 148.748 12.9309 148.748 13.1996V19.8567ZM107.836 16.3466V12.4542C107.836 10.8361 106.202 9.72766 104.429 9.72766H94.417V23.2394H97.3157V19.0158H99.8012L104.092 23.2394H107.855L103.615 19.0158H104.804C105.552 19.0358 106.28 18.7719 106.842 18.277C107.404 17.7821 107.759 17.0926 107.836 16.3466ZM97.3093 16.4867V12.4606H104.111C105.096 12.4606 105.414 12.8938 105.414 14.3717C105.414 15.8497 105.179 16.4867 104.035 16.4867H97.3093ZM133.765 9.73403H123.207V23.2458H125.985V19.0222H133.765C134.552 19.0205 135.306 18.7065 135.863 18.149C136.419 17.5914 136.732 16.8357 136.734 16.0472V12.7409C136.737 12.3478 136.663 11.9579 136.515 11.5936C136.368 11.2294 136.15 10.898 135.874 10.6185C135.598 10.339 135.27 10.117 134.908 9.96522C134.546 9.81343 134.158 9.73486 133.765 9.73403ZM133.95 15.6586C133.954 15.7758 133.935 15.8928 133.893 16.0023C133.851 16.1119 133.787 16.2119 133.706 16.2964C133.625 16.3808 133.527 16.448 133.42 16.4938C133.312 16.5397 133.196 16.5633 133.079 16.5632H125.978V12.4606H133.092C133.323 12.4606 133.544 12.5525 133.707 12.7162C133.871 12.8799 133.962 13.1019 133.962 13.3333L133.95 15.6586ZM193.246 9.73403H185.821C185.429 9.73486 185.04 9.81343 184.678 9.96522C184.317 10.117 183.988 10.339 183.712 10.6185C183.436 10.898 183.218 11.2294 183.071 11.5936C182.923 11.9579 182.849 12.3478 182.852 12.7409V23.2458H185.516V20.5065H193.379V23.2458H196.214V12.7409C196.218 12.3475 196.145 11.9573 195.997 11.5926C195.85 11.228 195.632 10.8963 195.356 10.6166C195.08 10.337 194.751 10.115 194.389 9.9635C194.027 9.812 193.638 9.73401 193.246 9.73403ZM185.516 17.7927V13.2442C185.516 13.0363 185.598 12.837 185.745 12.6901C185.891 12.5431 186.09 12.4606 186.298 12.4606H192.61C192.817 12.4606 193.016 12.5431 193.163 12.6901C193.309 12.837 193.392 13.0363 193.392 13.2442V17.7927H185.516Z" fill="#6D6E70"/>
<path d="M82.9112 28.1893C83.1239 28.1678 83.3387 28.1963 83.5385 28.2726C83.7382 28.3489 83.9174 28.4709 84.0618 28.6289C84.315 29.0035 84.4378 29.4513 84.4114 29.903V30.54C84.4378 30.9917 84.315 31.4395 84.0618 31.8141C83.9174 31.9721 83.7382 32.0941 83.5385 32.1704C83.3387 32.2467 83.1239 32.2752 82.9112 32.2537H80.0189V33.8718C80.0189 33.9928 79.9681 34.0565 79.8664 34.0565H79.1099C79.0018 34.0565 78.951 33.9928 78.951 33.8718V28.4123C78.951 28.2467 79.0209 28.1575 79.1608 28.1575H82.9112V28.1893ZM80.0189 31.1707H82.6951C82.7872 31.1783 82.8798 31.1658 82.9665 31.1338C83.0533 31.1019 83.132 31.0515 83.1973 30.986C83.3053 30.8175 83.3565 30.6188 83.3435 30.419V30.1005C83.3565 29.9007 83.3053 29.702 83.1973 29.5335C83.1337 29.4657 83.0552 29.4137 82.968 29.3817C82.8808 29.3496 82.7874 29.3383 82.6951 29.3487H80.0952C80.0316 29.3487 80.0062 29.3487 80.0062 29.4507L80.0189 31.1707ZM89.0964 28.1893C89.3091 28.1678 89.5238 28.1963 89.7236 28.2726C89.9233 28.3489 90.1025 28.4709 90.247 28.6289C90.5001 29.0035 90.623 29.4513 90.5966 29.903V30.3808C90.6156 30.7774 90.5324 31.1723 90.355 31.5274C90.269 31.6695 90.1536 31.7913 90.0165 31.8848C89.8794 31.9782 89.7238 32.041 89.5604 32.0689L90.7555 33.8527C90.7651 33.8725 90.77 33.8943 90.77 33.9164C90.77 33.9384 90.7651 33.9602 90.7555 33.9801C90.7555 34.0374 90.711 34.0629 90.6411 34.0629H89.7384C89.697 34.0757 89.6527 34.0757 89.6113 34.0629C89.5846 34.0383 89.5612 34.0105 89.5413 33.9801L88.4353 32.2282H86.1786V33.9036C86.1786 34.0247 86.1278 34.0884 86.0261 34.0884H85.2696C85.1615 34.0884 85.1107 34.0247 85.1107 33.9036V28.4441C85.1107 28.2785 85.1806 28.1893 85.3205 28.1893H89.0964ZM86.204 31.2153H88.8802C88.9723 31.2229 89.0649 31.2103 89.1517 31.1784C89.2384 31.1465 89.3171 31.0961 89.3824 31.0306C89.4904 30.8621 89.5416 30.6634 89.5286 30.4636V30.1068C89.5416 29.907 89.4904 29.7083 89.3824 29.5399C89.3171 29.4743 89.2384 29.4239 89.1517 29.392C89.0649 29.3601 88.9723 29.3475 88.8802 29.3551H86.293C86.2295 29.3551 86.204 29.387 86.204 29.457V31.2153ZM96.3049 28.1893C96.413 28.1893 96.4639 28.253 96.4639 28.3741V29.1767C96.4639 29.2978 96.413 29.3615 96.3049 29.3615H93.2537C93.1011 29.355 92.9485 29.3743 92.8024 29.4188C92.6905 29.4499 92.5908 29.5143 92.5163 29.6036C92.4412 29.7105 92.3892 29.832 92.3638 29.9603C92.3331 30.1434 92.3183 30.3289 92.3193 30.5145V30.5782H96.2604C96.3622 30.5782 96.413 30.642 96.413 30.763V31.4C96.413 31.5211 96.3622 31.5848 96.2604 31.5848H92.3193V31.7249C92.3151 31.9107 92.33 32.0964 92.3638 32.2792C92.3823 32.4095 92.4349 32.5326 92.5163 32.6359C92.5908 32.7251 92.6905 32.7896 92.8024 32.8207C92.9485 32.8651 93.1011 32.8845 93.2537 32.878H96.3049C96.413 32.878 96.4639 32.9417 96.4639 33.0627V33.8654C96.4639 33.9864 96.413 34.0502 96.3049 34.0502H93.2283C92.9229 34.0578 92.6182 34.017 92.3256 33.9291C92.0814 33.8657 91.8607 33.733 91.6899 33.5469C91.52 33.3498 91.402 33.1133 91.3467 32.8589C91.2696 32.5204 91.2333 32.174 91.2386 31.8269V30.4254C91.2333 30.0804 91.2696 29.736 91.3467 29.3997C91.402 29.1453 91.52 28.9087 91.6899 28.7117C91.8631 28.5272 92.0827 28.393 92.3256 28.3231C92.6182 28.2352 92.9229 28.1944 93.2283 28.2021H96.3049V28.1893ZM98.6569 28.1893C98.7455 28.1766 98.8354 28.1766 98.9239 28.1893C98.9952 28.208 99.0621 28.2405 99.121 28.2849C99.1824 28.3394 99.234 28.404 99.2736 28.476C99.3257 28.581 99.3703 28.6896 99.407 28.8009L100.863 32.8461C100.868 32.8675 100.881 32.8865 100.898 32.9003C100.915 32.9141 100.936 32.9219 100.958 32.9226H101.073C101.095 32.9219 101.116 32.9141 101.133 32.9003C101.15 32.8865 101.162 32.8675 101.168 32.8461L102.624 28.8009C102.66 28.6896 102.705 28.581 102.757 28.476C102.793 28.4019 102.845 28.3367 102.91 28.2849C102.966 28.2407 103.031 28.2082 103.1 28.1893H104.111C104.203 28.1769 104.296 28.1886 104.382 28.2232C104.468 28.2579 104.543 28.3142 104.601 28.3868C104.703 28.5986 104.747 28.8339 104.728 29.0684V33.9036C104.728 34.0247 104.677 34.0884 104.569 34.0884H103.857C103.755 34.0884 103.704 34.0247 103.704 33.9036V29.5016C103.704 29.4443 103.704 29.4188 103.647 29.4188H103.583C103.562 29.417 103.542 29.4232 103.525 29.4362C103.509 29.4492 103.498 29.4681 103.494 29.4889L102.083 33.2666C102.036 33.3984 101.979 33.5263 101.912 33.6488C101.861 33.7428 101.797 33.8287 101.721 33.9036C101.658 33.9691 101.579 34.0173 101.492 34.0438C101.393 34.0742 101.29 34.0892 101.187 34.0884H100.85C100.747 34.0896 100.644 34.0746 100.545 34.0438C100.458 34.0173 100.379 33.9691 100.316 33.9036C100.24 33.8287 100.176 33.7428 100.125 33.6488C100.058 33.5263 100.001 33.3984 99.9537 33.2666L98.5298 29.4889C98.5267 29.4681 98.5157 29.4492 98.4992 29.4362C98.4826 29.4232 98.4618 29.417 98.4408 29.4188H98.3772C98.3391 29.4188 98.32 29.4188 98.32 29.5016V33.9036C98.32 34.0247 98.2692 34.0884 98.1675 34.0884H97.4555C97.3475 34.0884 97.2966 34.0247 97.2966 33.9036V29.0684C97.2775 28.8339 97.3214 28.5986 97.4237 28.3868C97.4827 28.3142 97.5592 28.2579 97.646 28.2233C97.7328 28.1888 97.827 28.177 97.9196 28.1893H98.6569ZM106.533 28.1893C106.635 28.1893 106.686 28.253 106.686 28.3741V33.9036C106.686 34.0247 106.635 34.0884 106.533 34.0884H105.796C105.688 34.0884 105.637 34.0247 105.637 33.9036V28.3741C105.637 28.253 105.688 28.1893 105.796 28.1893H106.533ZM108.516 28.1893C108.618 28.1893 108.669 28.253 108.669 28.3741V31.7377C108.665 31.9256 108.68 32.1134 108.713 32.2983C108.739 32.4266 108.791 32.5481 108.866 32.655C108.94 32.7443 109.04 32.8087 109.152 32.8398C109.298 32.8842 109.451 32.9036 109.603 32.8971H111.51C111.663 32.9036 111.816 32.8842 111.962 32.8398C112.073 32.8087 112.173 32.7443 112.248 32.655C112.325 32.5498 112.375 32.4273 112.394 32.2983C112.425 32.113 112.439 31.9255 112.438 31.7377V28.3741C112.438 28.253 112.489 28.1893 112.591 28.1893H113.354C113.455 28.1893 113.506 28.253 113.506 28.3741V31.8523C113.511 32.1991 113.477 32.5452 113.405 32.8844C113.349 33.1373 113.233 33.3732 113.068 33.5724C112.897 33.7585 112.676 33.8912 112.432 33.9546C112.139 34.0394 111.835 34.0802 111.529 34.0756H109.514C109.209 34.0833 108.904 34.0425 108.612 33.9546C108.367 33.8912 108.147 33.7585 107.976 33.5724C107.806 33.3753 107.688 33.1388 107.633 32.8844C107.556 32.5459 107.519 32.1994 107.525 31.8523V28.3741C107.525 28.253 107.575 28.1893 107.684 28.1893H108.516ZM115.827 28.1893C115.915 28.1766 116.005 28.1766 116.094 28.1893C116.165 28.208 116.232 28.2405 116.291 28.2849C116.352 28.3394 116.404 28.404 116.443 28.476C116.495 28.581 116.54 28.6896 116.577 28.8009L118.032 32.8461C118.038 32.8675 118.05 32.8865 118.067 32.9003C118.085 32.9141 118.106 32.9219 118.128 32.9226H118.236C118.258 32.9219 118.279 32.9141 118.296 32.9003C118.313 32.8865 118.326 32.8675 118.331 32.8461L119.787 28.8009C119.824 28.6896 119.868 28.581 119.92 28.476C119.957 28.4019 120.009 28.3367 120.073 28.2849C120.129 28.2407 120.194 28.2082 120.264 28.1893H121.274C121.366 28.1769 121.459 28.1886 121.545 28.2232C121.631 28.2579 121.706 28.3142 121.764 28.3868C121.866 28.5986 121.91 28.8339 121.891 29.0684V33.9036C121.891 34.0247 121.84 34.0884 121.732 34.0884H121.02C120.918 34.0884 120.867 34.0247 120.867 33.9036V29.5016C120.867 29.4443 120.867 29.4188 120.81 29.4188H120.747C120.726 29.417 120.705 29.4232 120.688 29.4362C120.672 29.4492 120.661 29.4681 120.658 29.4889L119.246 33.2666C119.2 33.3984 119.142 33.5263 119.075 33.6488C119.024 33.7428 118.96 33.8287 118.884 33.9036C118.821 33.9691 118.742 34.0173 118.655 34.0438C118.556 34.0742 118.454 34.0892 118.35 34.0884H118.013C117.91 34.0896 117.807 34.0746 117.708 34.0438C117.623 34.0139 117.545 33.9661 117.479 33.9036C117.403 33.8287 117.339 33.7428 117.289 33.6488C117.221 33.5263 117.164 33.3984 117.117 33.2666L115.693 29.4889C115.69 29.4681 115.679 29.4492 115.662 29.4362C115.646 29.4232 115.625 29.417 115.604 29.4188H115.541C115.502 29.4188 115.483 29.4188 115.483 29.5016V33.9036C115.483 34.0247 115.432 34.0884 115.331 34.0884H114.619C114.511 34.0884 114.46 34.0247 114.46 33.9036V29.0684C114.441 28.8339 114.485 28.5986 114.587 28.3868C114.646 28.3142 114.722 28.2579 114.809 28.2233C114.896 28.1888 114.99 28.177 115.083 28.1893H115.827ZM129.087 28.1893C129.299 28.1678 129.514 28.1963 129.714 28.2726C129.914 28.3489 130.093 28.4709 130.237 28.6289C130.49 29.0035 130.613 29.4513 130.587 29.903V30.54C130.613 30.9917 130.49 31.4395 130.237 31.8141C130.093 31.9721 129.914 32.0941 129.714 32.1704C129.514 32.2467 129.299 32.2752 129.087 32.2537H126.194V33.8718C126.194 33.9928 126.144 34.0565 126.042 34.0565H125.285C125.177 34.0565 125.126 33.9928 125.126 33.8718V28.4123C125.126 28.2467 125.196 28.1575 125.336 28.1575H129.087V28.1893ZM126.194 31.1707H128.871C128.963 31.1783 129.055 31.1658 129.142 31.1338C129.229 31.1019 129.308 31.0515 129.373 30.986C129.481 30.8175 129.532 30.6188 129.519 30.419V30.1005C129.532 29.9007 129.481 29.702 129.373 29.5335C129.309 29.4657 129.231 29.4137 129.144 29.3817C129.056 29.3496 128.963 29.3383 128.871 29.3487H126.283C126.22 29.3487 126.194 29.3487 126.194 29.4507V31.1707ZM135.246 28.1893C135.459 28.1678 135.674 28.1963 135.874 28.2726C136.073 28.3489 136.253 28.4709 136.397 28.6289C136.65 29.0035 136.773 29.4513 136.747 29.903V30.3808C136.766 30.7774 136.683 31.1723 136.505 31.5274C136.419 31.6695 136.304 31.7913 136.167 31.8848C136.029 31.9782 135.874 32.041 135.711 32.0689L136.906 33.8527C136.915 33.8725 136.92 33.8943 136.92 33.9164C136.92 33.9384 136.915 33.9602 136.906 33.9801C136.906 34.0374 136.861 34.0629 136.791 34.0629H135.889C135.847 34.0757 135.803 34.0757 135.761 34.0629C135.735 34.0383 135.711 34.0105 135.691 33.9801L134.585 32.2282H132.329V33.9036C132.329 34.0247 132.278 34.0884 132.176 34.0884H131.42C131.312 34.0884 131.261 34.0247 131.261 33.9036V28.4441C131.261 28.2785 131.331 28.1893 131.471 28.1893H135.246ZM132.354 31.2153H135.037C135.129 31.2229 135.221 31.2103 135.308 31.1784C135.395 31.1465 135.474 31.0961 135.539 31.0306C135.647 30.8621 135.698 30.6634 135.685 30.4636V30.1068C135.698 29.907 135.647 29.7083 135.539 29.5399C135.474 29.4743 135.395 29.4239 135.308 29.392C135.221 29.3601 135.129 29.3475 135.037 29.3551H132.449C132.386 29.3551 132.361 29.387 132.361 29.457L132.354 31.2153ZM141.54 28.1893C141.845 28.1816 142.15 28.2225 142.442 28.3104C142.685 28.3802 142.905 28.5145 143.078 28.699C143.243 28.8981 143.359 29.134 143.415 29.387C143.492 29.7232 143.528 30.0676 143.523 30.4126V31.8523C143.528 32.1994 143.492 32.5459 143.415 32.8844C143.359 33.1373 143.243 33.3732 143.078 33.5724C142.907 33.7585 142.687 33.8912 142.442 33.9546C142.149 34.0394 141.845 34.0802 141.54 34.0756H139.378C139.073 34.0833 138.768 34.0425 138.476 33.9546C138.231 33.8933 138.009 33.7602 137.84 33.5724C137.67 33.3753 137.552 33.1388 137.497 32.8844C137.42 32.5459 137.383 32.1994 137.389 31.8523V30.4126C137.383 30.0676 137.42 29.7232 137.497 29.387C137.552 29.1325 137.67 28.896 137.84 28.699C138.012 28.5127 138.232 28.3781 138.476 28.3104C138.768 28.2225 139.073 28.1816 139.378 28.1893H141.54ZM138.495 31.7695C138.491 31.9553 138.506 32.141 138.539 32.3238C138.565 32.452 138.617 32.5736 138.692 32.6805C138.766 32.7697 138.866 32.8342 138.978 32.8652C139.124 32.9097 139.277 32.9291 139.429 32.9226H141.502C141.654 32.9291 141.807 32.9097 141.953 32.8652C142.065 32.8342 142.164 32.7697 142.239 32.6805C142.314 32.5736 142.366 32.452 142.391 32.3238C142.425 32.141 142.44 31.9553 142.436 31.7695V30.4954C142.44 30.3096 142.425 30.1239 142.391 29.9412C142.366 29.8129 142.314 29.6914 142.239 29.5845C142.164 29.4952 142.065 29.4308 141.953 29.3997C141.807 29.3552 141.654 29.3358 141.502 29.3424H139.429C139.277 29.3358 139.124 29.3552 138.978 29.3997C138.866 29.4308 138.766 29.4952 138.692 29.5845C138.617 29.6914 138.565 29.8129 138.539 29.9412C138.506 30.1239 138.491 30.3096 138.495 30.4954V31.7695ZM148.329 28.1893C148.541 28.1678 148.756 28.1963 148.956 28.2726C149.156 28.3489 149.335 28.4709 149.479 28.6289C149.732 29.0035 149.855 29.4513 149.829 29.903V30.54C149.855 30.9917 149.732 31.4395 149.479 31.8141C149.335 31.9721 149.156 32.0941 148.956 32.1704C148.756 32.2467 148.541 32.2752 148.329 32.2537H145.436V33.8718C145.436 33.9928 145.386 34.0565 145.284 34.0565H144.527C144.419 34.0565 144.368 33.9928 144.368 33.8718V28.4123C144.368 28.2467 144.438 28.1575 144.578 28.1575H148.329V28.1893ZM145.43 31.1707H148.113C148.205 31.1783 148.297 31.1658 148.384 31.1338C148.471 31.1019 148.549 31.0515 148.615 30.986C148.723 30.8175 148.774 30.6188 148.761 30.419V30.1005C148.774 29.9007 148.723 29.702 148.615 29.5335C148.549 29.468 148.471 29.4175 148.384 29.3856C148.297 29.3537 148.205 29.3411 148.113 29.3487H145.525C145.462 29.3487 145.436 29.3487 145.436 29.4507L145.43 31.1707ZM155.499 28.1893C155.607 28.1893 155.658 28.253 155.658 28.3741V29.1767C155.658 29.2978 155.607 29.3615 155.499 29.3615H152.448C152.295 29.355 152.143 29.3743 151.997 29.4188C151.885 29.4499 151.785 29.5143 151.71 29.6036C151.635 29.7105 151.583 29.832 151.558 29.9603C151.527 30.1434 151.512 30.3289 151.513 30.5145V30.5782H155.461C155.563 30.5782 155.614 30.642 155.614 30.763V31.4C155.614 31.5211 155.563 31.5848 155.461 31.5848H151.513V31.7249C151.509 31.9107 151.524 32.0964 151.558 32.2792C151.576 32.4095 151.629 32.5326 151.71 32.6359C151.785 32.7251 151.885 32.7896 151.997 32.8207C152.143 32.8651 152.295 32.8845 152.448 32.878H155.499C155.607 32.878 155.658 32.9417 155.658 33.0627V33.8654C155.658 33.9864 155.607 34.0502 155.499 34.0502H152.422C152.117 34.0578 151.812 34.017 151.52 33.9291C151.276 33.8657 151.055 33.733 150.884 33.5469C150.714 33.3498 150.596 33.1133 150.541 32.8589C150.464 32.5204 150.427 32.174 150.433 31.8269V30.4254C150.427 30.0804 150.464 29.736 150.541 29.3997C150.619 29.1603 150.752 28.9423 150.929 28.7627C151.102 28.5782 151.321 28.4439 151.564 28.3741C151.857 28.2862 152.162 28.2453 152.467 28.253H155.544L155.499 28.1893ZM160.426 28.1893C160.638 28.1678 160.853 28.1963 161.053 28.2726C161.253 28.3489 161.432 28.4709 161.576 28.6289C161.829 29.0035 161.952 29.4513 161.926 29.903V30.3808C161.946 30.7782 161.86 31.1738 161.678 31.5274C161.592 31.6695 161.476 31.7913 161.339 31.8848C161.202 31.9782 161.047 32.041 160.883 32.0689L162.078 33.8527C162.088 33.8725 162.093 33.8943 162.093 33.9164C162.093 33.9384 162.088 33.9602 162.078 33.9801C162.078 34.0374 162.034 34.0629 161.964 34.0629H161.099C161.058 34.0757 161.014 34.0757 160.972 34.0629C160.946 34.0383 160.922 34.0105 160.902 33.9801L159.796 32.2282H157.54V33.9036C157.54 34.0247 157.489 34.0884 157.387 34.0884H156.631C156.523 34.0884 156.472 34.0247 156.472 33.9036V28.4441C156.472 28.2785 156.542 28.1893 156.681 28.1893H160.426ZM157.527 31.2153H160.19C160.282 31.2229 160.375 31.2103 160.462 31.1784C160.549 31.1465 160.627 31.0961 160.693 31.0306C160.801 30.8621 160.852 30.6634 160.839 30.4636V30.1068C160.852 29.907 160.801 29.7083 160.693 29.5399C160.627 29.4743 160.549 29.4239 160.462 29.392C160.375 29.3601 160.282 29.3475 160.19 29.3551H157.648C157.584 29.3551 157.559 29.387 157.559 29.457L157.527 31.2153ZM168.016 28.1893C168.124 28.1893 168.174 28.253 168.174 28.3741V29.2022C168.174 29.3296 168.124 29.3933 168.016 29.3933H165.822V33.9036C165.822 34.0247 165.772 34.0884 165.67 34.0884H164.913C164.812 34.0884 164.761 34.0247 164.761 33.9036V29.3806H162.561C162.453 29.3806 162.403 29.3169 162.403 29.1895V28.3613C162.403 28.2403 162.453 28.1766 162.561 28.1766L168.016 28.1893ZM169.726 28.1893C169.827 28.1893 169.878 28.253 169.878 28.3741V33.9036C169.878 34.0247 169.827 34.0884 169.726 34.0884H168.963C168.855 34.0884 168.804 34.0247 168.804 33.9036V28.3741C168.804 28.253 168.855 28.1893 168.963 28.1893H169.726ZM175.777 28.1893C175.885 28.1893 175.936 28.253 175.936 28.3741V29.1767C175.936 29.2978 175.885 29.3615 175.777 29.3615H172.726C172.573 29.355 172.421 29.3743 172.275 29.4188C172.163 29.4499 172.063 29.5143 171.989 29.6036C171.913 29.7105 171.861 29.832 171.836 29.9603C171.805 30.1434 171.79 30.3289 171.791 30.5145V30.5782H175.72C175.822 30.5782 175.873 30.642 175.873 30.763V31.4C175.873 31.5211 175.822 31.5848 175.72 31.5848H171.772V31.7249C171.768 31.9107 171.783 32.0964 171.817 32.2792C171.835 32.4095 171.888 32.5326 171.969 32.6359C172.044 32.7251 172.144 32.7896 172.256 32.8207C172.402 32.8651 172.554 32.8845 172.707 32.878H175.758C175.866 32.878 175.917 32.9417 175.917 33.0627V33.8654C175.917 33.9864 175.866 34.0502 175.758 34.0502H172.681C172.376 34.0578 172.071 34.017 171.779 33.9291C171.535 33.8657 171.314 33.733 171.143 33.5469C170.973 33.3498 170.855 33.1133 170.8 32.8589C170.723 32.5204 170.686 32.174 170.692 31.8269V30.4254C170.686 30.0804 170.723 29.736 170.8 29.3997C170.855 29.1453 170.973 28.9087 171.143 28.7117C171.316 28.5272 171.536 28.393 171.779 28.3231C172.071 28.2352 172.376 28.1944 172.681 28.2021H175.758L175.777 28.1893ZM181.594 28.1893C181.695 28.1893 181.746 28.253 181.746 28.3741V29.1767C181.746 29.2978 181.695 29.3615 181.594 29.3615H178.091C178.037 29.3579 177.982 29.3677 177.932 29.3899C177.883 29.4121 177.839 29.446 177.805 29.4889C177.743 29.5923 177.714 29.7124 177.722 29.8329V30.1196C177.722 30.4317 177.843 30.591 178.085 30.591H180.704C180.875 30.5781 181.047 30.6054 181.206 30.6706C181.365 30.7359 181.506 30.8373 181.619 30.9668C181.842 31.2796 181.95 31.66 181.924 32.0435V32.7187C181.939 33.0743 181.834 33.4244 181.625 33.7125C181.51 33.8444 181.365 33.9475 181.203 34.0138C181.041 34.0802 180.866 34.1079 180.691 34.0947H176.82C176.712 34.0947 176.661 34.031 176.661 33.91V33.1264C176.661 33.0054 176.712 32.9417 176.82 32.9417H180.488C180.542 32.9452 180.596 32.9355 180.646 32.9133C180.696 32.8911 180.74 32.8571 180.774 32.8143C180.836 32.7109 180.865 32.5907 180.856 32.4703V32.1072C180.856 31.795 180.735 31.6357 180.494 31.6357H177.875C177.712 31.6463 177.548 31.621 177.395 31.5615C177.243 31.5021 177.105 31.4101 176.991 31.2917C176.769 30.979 176.661 30.5986 176.686 30.2151V29.5781C176.671 29.2226 176.777 28.8724 176.985 28.5843C177.101 28.4525 177.245 28.3493 177.407 28.283C177.569 28.2167 177.745 28.189 177.919 28.2021L181.594 28.1893Z" fill="#00ADE5"/>
</g>
<defs>
<clipPath id="clip0_1_625">
<rect width="211" height="39" fill="white"/>
</clipPath>
</defs>
</svg>
